<svg width="32" height="32" viewBox="0 0 32 32" fill="none" xmlns="http://www.w3.org/2000/svg">
<path d="M23.5835 24.9977C23.5559 24.9992 23.528 25 23.5 25H10.5C9.94771 25 9.5 25.4477 9.5 26C9.5 26.5523 9.94771 27 10.5 27H23.5C25.433 27 27 25.433 27 23.5V10.5C27 9.9477 26.5523 9.49999 26 9.49999C25.4477 9.49999 25 9.9477 25 10.5V23.5C25 23.528 24.9992 23.5558 24.9977 23.5835L7.20711 5.79288C6.81658 5.40235 6.18342 5.40235 5.79289 5.79288C5.40237 6.1834 5.40237 6.81657 5.79289 7.20709L23.5835 24.9977Z" fill="black"/>
</svg>
